<?xml version="1.0" standalone="no"?><!DOCTYPE svg PUBLIC "-//W3C//DTD SVG 1.1//EN" "http://www.w3.org/Graphics/SVG/1.1/DTD/svg11.dtd"><svg t="1686103158881" class="icon" viewBox="0 0 1024 1024" version="1.1" xmlns="http://www.w3.org/2000/svg" p-id="4754" xmlns:xlink="http://www.w3.org/1999/xlink" width="200" height="200"><path d="M611.979034 2.28393c-34.487342 0-62.465485 28.092339-62.465484 62.579681 0 4.22527 0.456786 8.450541 1.256161 12.675811l-478.483328 478.483328C38.14163 550.998104 6.395004 574.522583 1.370358 608.667336c-5.024646 34.144753 18.499833 65.89138 52.644586 70.916025 34.144753 5.024646 65.89138-18.499833 70.916025-52.644585 1.256161-8.450541 0.799375-17.015278-1.484554-25.237427l475.742611-475.742611c33.802163 7.080183 66.919148-14.617152 73.885135-48.419316 7.080183-33.802163-14.617152-66.919148-48.419315-73.885134-4.111074-0.913572-8.450541-1.370358-12.675812-1.370358zM993.737928 326.601985L851.106502 183.970559c-39.626185-39.626185-103.918813-39.626185-143.659195 0L183.856362 707.561503c-39.626185 39.626185-39.626185 103.918813 0 143.659195l142.631427 142.631426c39.626185 39.626185 103.918813 39.626185 143.659194 0l523.590945-523.590944c39.626185-39.740381 39.626185-104.03301 0-143.659195z m-48.419315 95.125683L421.613472 945.318613c-12.904204 12.904204-33.802163 12.904204-46.706368 0L232.275677 802.801383c-12.904204-12.904204-12.904204-33.802163 0-46.706368l113.739713-113.739712L471.060555 767.400468l48.419316-48.419315L394.548902 593.821791l113.397122-113.397123 125.045166 125.045166 48.419315-48.419315-125.045165-125.045166 36.20029-36.20029 59.267982 59.267983 48.533512-48.419316-59.267983-59.267982 35.629308-35.629308L801.659418 436.687409l48.419315-48.419315L725.147764 263.337125l30.833055-30.833055c12.904204-12.904204 33.802163-12.904204 46.706367 0l142.631427 142.51723c12.904204 12.904204 12.904204 33.802163 0 46.706368z" p-id="4755"></path><path d="M260.31777 725.800968l48.449006-48.449006 59.512363 59.512363-48.449006 48.449006zM427.15657 558.96331l48.449006-48.449006 59.511221 59.512363-48.449006 48.449006z" p-id="4756"></path></svg>