<?xml version="1.0" standalone="no"?><!DOCTYPE svg PUBLIC "-//W3C//DTD SVG 1.1//EN" "http://www.w3.org/Graphics/SVG/1.1/DTD/svg11.dtd"><svg t="1686102824490" class="icon" viewBox="0 0 1024 1024" version="1.1" xmlns="http://www.w3.org/2000/svg" p-id="792" xmlns:xlink="http://www.w3.org/1999/xlink" width="200" height="200"><path d="M256 339.2h512V512H256V339.2z"  opacity=".1" p-id="793"></path><path d="M768 588.8H256c-19.2 0-32-12.8-32-32v-384c0-19.2 12.8-32 32-32h512c19.2 0 32 12.8 32 32v384c0 12.8-12.8 32-32 32z m-480-64h448v-320h-448v320z"  p-id="794"></path><path d="M768 883.2h-19.2v-32h-12.8v-44.8h64v44.8c0 19.2-12.8 32-32 32z m-83.2 0h-64v-64h64v64z m-128 0h-64v-64h64v64z m-128 0h-64v-64h64v64z m-128 0H256c-19.2 0-32-12.8-32-32V832H256v-12.8h44.8v64zM288 768h-64v-64h64v64z m512-19.2h-64v-64h64v64z m-512-108.8h-64V576H256v-51.2h64v64h-32v51.2z m512-19.2h-64v-64h64v64zM704 588.8h-64v-64h64v64z m-128 0H512v-64h64v64z m-128 0H384v-64h64v64z"  p-id="795"></path><path d="M940.8 595.2H83.2V512h851.2v83.2zM128 556.8h768H128z"  p-id="796"></path></svg>