<?xml version="1.0" standalone="no"?><!DOCTYPE svg PUBLIC "-//W3C//DTD SVG 1.1//EN" "http://www.w3.org/Graphics/SVG/1.1/DTD/svg11.dtd"><svg t="1686102716504" class="icon" viewBox="0 0 1024 1024" version="1.1" xmlns="http://www.w3.org/2000/svg" p-id="2492" xmlns:xlink="http://www.w3.org/1999/xlink" width="200" height="200"><path d="M504.448 519.552m-151.189333 0a151.189333 151.189333 0 1 0 302.378666 0 151.189333 151.189333 0 1 0-302.378666 0Z"  p-id="2493"></path><path d="M504.448 124.714667c-218.069333 0-394.858667 176.768-394.858667 394.837333s176.789333 394.858667 394.858667 394.858667 394.837333-176.789333 394.837333-394.858667S722.517333 124.714667 504.448 124.714667z m0 64c182.72 0 330.837333 148.117333 330.837333 330.837333s-148.117333 330.858667-330.837333 330.858667S173.589333 702.272 173.589333 519.552c0-182.72 148.138667-330.837333 330.858667-330.837333z"  p-id="2494"></path><path d="M519.552 10.666667a32 32 0 0 1 32 32v98.922666a32 32 0 1 1-64 0V42.666667a32 32 0 0 1 32-32zM519.552 850.410667a32 32 0 0 1 32 32V981.333333a32 32 0 0 1-64 0v-98.922666a32 32 0 0 1 32-32z"  p-id="2495"></path><path d="M10.666667 519.552a32 32 0 0 1 32-32h98.922666a32 32 0 1 1 0 64H42.666667a32 32 0 0 1-32-32zM850.410667 519.552a32 32 0 0 1 32-32H981.333333a32 32 0 0 1 0 64h-98.922666a32 32 0 0 1-32-32z"  p-id="2496"></path></svg>