<svg t="1650865100308" class="icon" viewBox="0 0 1024 1024" version="1.1" xmlns="http://www.w3.org/2000/svg" p-id="6864" width="200" height="200"><path d="M392.192 760.832h359.936v144.384h59.904v-144.384H931.84c20.48 0 34.816-19.456 28.672-38.912l-150.016-480.256c-8.704-28.16-48.64-28.16-57.344 0l-124.928 400.384L389.632 59.392c-10.24-25.088-45.568-25.088-55.296 0l-205.312 501.76-1.024 1.024 0.512 0.512-64 157.184c-8.192 19.968 6.656 41.472 27.648 41.472h240.128v144.384h59.904v-144.896z m389.632-409.6l77.312 246.784c-5.12-5.12-11.264-11.776-18.944-20.992-5.632-6.656-8.704-10.752-11.776-13.824-4.608-5.632-8.704-9.728-12.8-13.824-5.632-5.632-10.752-10.24-16.384-14.336-23.04-16.384-47.616-18.944-71.68-10.24l54.272-173.568z m-92.16 294.912c32.256-56.32 59.392-72.704 74.752-61.952 2.56 1.536 5.12 4.096 8.192 7.168 5.12 5.12 5.632 5.632 20.992 24.576 32.256 38.4 57.856 58.88 88.064 56.32l8.704 28.672h-218.624l17.92-54.784z m-327.68-496.128l166.912 408.064c-27.136 3.072-52.224-10.752-93.696-46.08-28.672-24.064-29.696-25.088-40.96-32.768-8.704-6.144-16.896-11.264-25.088-15.36-43.52-21.504-91.136-17.92-138.752 7.68l131.584-321.536z m-225.28 550.4l44.544-109.056c58.88-71.168 117.76-95.744 161.28-74.24 5.12 2.56 10.752 6.144 16.896 10.24 9.216 6.656 10.24 7.168 36.864 30.208 60.416 50.688 102.4 71.168 155.648 56.832l35.328 86.016h-450.56z" p-id="6865"></path><path d="M928.256 905.216H95.744c-16.896 0-30.72 13.824-30.72 30.72s13.824 30.72 30.72 30.72h832.512c16.896 0 30.72-13.824 30.72-30.72s-13.824-30.72-30.72-30.72z" p-id="6866"></path></svg>