<svg t="1650865111737" class="icon" viewBox="0 0 1024 1024" version="1.1" xmlns="http://www.w3.org/2000/svg" p-id="7000" width="200" height="200"><path d="M194.346667 513.066667v193.28h42.666666v-193.28A277.333333 277.333333 0 0 0 331.946667 490.666667c48.426667-24.106667 52.906667-111.146667 42.666666-176.426667a106.666667 106.666667 0 0 0 55.04 23.253333v112.853334h42.666667v-111.786667a202.666667 202.666667 0 0 0 69.546667-16.853333c48.213333-24.106667 40.533333-120.32 26.026666-164.053334-17.28-49.92-37.973333-97.92-77.226666-109.866666-23.68-7.253333-49.92 0-80.213334 22.826666a115.84 115.84 0 0 0-36.693333 64 89.173333 89.173333 0 0 0-25.386667 30.08 128 128 0 0 0-12.8 39.253334c-21.333333-44.8-43.946667-68.906667-72.106666-77.653334s-64 0-104.106667 30.293334A152.533333 152.533333 0 0 0 110.933333 243.2a109.226667 109.226667 0 0 0-35.413333 40.533333 170.666667 170.666667 0 0 0 14.933333 178.986667 131.413333 131.413333 0 0 0 103.893334 50.346667z m185.6-310.186667A64 64 0 0 1 397.226667 170.666667h14.72l2.56-18.346667a85.333333 85.333333 0 0 1 22.4-47.36c18.346667-13.866667 32.426667-18.986667 42.666666-16.213333 22.613333 7.253333 41.6 64 47.786667 82.56 16 47.786667 8.746667 106.666667-4.693333 112.426666a154.666667 154.666667 0 0 1-50.346667 12.16v-58.88h-42.666667v57.173334a51.413333 51.413333 0 0 1-33.28-18.773334 90.88 90.88 0 0 1-16.426666-72.533333zM105.173333 325.333333a87.893333 87.893333 0 0 1 27.733334-45.653333H149.333333l2.56-18.133333a125.013333 125.013333 0 0 1 33.92-71.466667C213.333333 168.96 234.666667 161.28 251.52 166.4c32 10.026667 56.533333 73.173333 72.106667 119.893333 21.333333 64 15.146667 153.173333-10.666667 166.186667a228.48 228.48 0 0 1-75.946667 18.346667v-192h-42.666666v122.24l-26.88-29.226667-31.36 28.8 58.24 64v6.613333A88.96 88.96 0 0 1 128 438.4a132.053333 132.053333 0 0 1-22.826667-113.066667z" p-id="7001"></path><path d="M962.346667 307.84v-64l-162.133334-69.546667-16.853333 39.04 136.32 58.453334v21.333333L652.8 663.68h-31.786667v-106.666667h-192v106.666667h-8.533333L341.333333 738.986667a117.546667 117.546667 0 0 0-100.266666 86.613333l-73.813334-29.44L128 718.08l-38.186667 18.986667 46.293334 92.586666 101.76 40.746667a117.333333 117.333333 0 0 0 231.466666 6.613333h153.386667a117.333333 117.333333 0 1 0 216.96-79.786666l9.386667 9.386666 91.52-91.52V490.666667l-205.44 174.08h-29.653334z m-490.666667 291.84h106.666667v64h-106.666667z m-117.333333 330.666667a74.666667 74.666667 0 0 1 0-149.333334h3.84a74.453333 74.453333 0 0 1-4.48 149.333334zM395.946667 746.666667l42.666666-39.68h279.68l9.386667 11.093333v21.333333a117.333333 117.333333 0 0 0-104.533333 95.573334H469.333333A117.333333 117.333333 0 0 0 395.946667 746.666667z m342.4 184.32a74.666667 74.666667 0 1 1 74.666666-74.666667 74.666667 74.666667 0 0 1-74.666666 74.026667z m160-232.96l-76.16 76.16a116.48 116.48 0 0 0-51.84-30.72v-53.546667l128-108.373333z" p-id="7002"></path></svg>