<svg t="1650866597581" class="icon" viewBox="0 0 1024 1024" version="1.1" xmlns="http://www.w3.org/2000/svg" p-id="22368" width="200" height="200"><path d="M866.2 72H160.8c-51.5 0-93.2 41.7-93.2 93.2v705.3c0 51.5 41.7 93.2 93.2 93.2h705.3c51.5 0 93.2-41.7 93.2-93.2V165.1c0-51.4-41.7-93.1-93.1-93.1zM747.4 94.1c84.2 0 152.4 68.2 152.4 152.4 0 103.4-87.7 171.9-145.6 246.6-1.5 2-3 3.9-4.5 5.9 3.8-5.2-27.3-34.3-31.2-38.5C663 400.6 595 334.2 595 246.5c-0.1-84.2 68.2-152.4 152.4-152.4z m178.1 414L722.9 723l146 143.1c8.2 8 8.3 21.1 0.3 29.3-4.1 4.1-9.4 6.2-14.8 6.2-5.2 0-10.5-2-14.5-5.9L538.2 600 284.1 869.4c-4.1 4.3-9.6 6.5-15.1 6.5-5.1 0-10.2-1.9-14.2-5.6-8.3-7.8-8.7-20.9-0.9-29.3l254.7-270-126.2-123.7-195.8 207.6c-4.1 4.3-9.6 6.5-15.1 6.5-5.1 0-10.2-1.9-14.2-5.6-8.3-7.8-8.7-20.9-0.9-29.3l196.3-208.2-194.6-190.7c-8.2-8-8.3-21.1-0.3-29.3s21.1-8.3 29.3-0.3l350 342.9 63-66.8c7.8-8.3 20.9-8.7 29.3-0.9 8.3 7.8 8.7 20.9 0.9 29.3l-63.5 67.3L693.3 694l202.1-214.3c7.8-8.3 20.9-8.7 29.3-0.9 8.3 7.9 8.7 21 0.8 29.3z" p-id="22369"></path><path d="M747.4 232.8m-79.6 0a79.6 79.6 0 1 0 159.2 0 79.6 79.6 0 1 0-159.2 0Z" p-id="22370"></path></svg>