<?xml version="1.0" standalone="no"?><!DOCTYPE svg PUBLIC "-//W3C//DTD SVG 1.1//EN" "http://www.w3.org/Graphics/SVG/1.1/DTD/svg11.dtd"><svg t="1690265574450" class="icon" viewBox="0 0 1024 1024" version="1.1" xmlns="http://www.w3.org/2000/svg" p-id="3958" xmlns:xlink="http://www.w3.org/1999/xlink" width="200" height="200"><path d="M601 378.6c0 24.6 20 44.4 44.4 44.4h267c24.6 0 44.4-20 44.4-44.4 0-24.6-20-44.4-44.4-44.4h-159.6L944 143c17.4-17.4 17.4-45.6 0-63s-45.6-17.4-63 0L690 271V111.6c0-24.6-20-44.4-44.4-44.4-24.6 0-44.4 20-44.4 44.4v267z m-178 266.8c0-24.6-20-44.4-44.4-44.4H111.6c-24.6 0-44.4 20-44.4 44.4 0 24.6 20 44.4 44.4 44.4h159.6L80 881c-17.4 17.4-17.4 45.6 0 63s45.6 17.4 63 0l191-191v159.6c0 24.6 20 44.4 44.4 44.4 24.6 0 44.4-20 44.4-44.4V645.4z"  p-id="3959"></path></svg>