<?xml version="1.0" encoding="utf-8"?>
<svg version="1.1" xmlns:xlink="http://www.w3.org/1999/xlink" width="28px" height="28px" xmlns="http://www.w3.org/2000/svg">
  <g transform="matrix(1 0 0 1 -82 -1390 )">
    <path d="M 14.000000306 0  C 21.7319871370009 0  27.9999998 6.26801347499914  27.9999994 14.000000306  C 27.999999 21.7319867370009  21.7319859370009 27.9999998  13.999999086 27.9999994  C 6.26801273499913 27.999999  0 21.7319853370009  0 13.999999086  C 0 6.26801225499916  6.26801395499911 0  14.000000306 0  Z M 13.999999166 25.9999994437143  C 20.6274155611436 25.9999996437143  25.9999990437143 20.6274171611436  25.9999994437143 14.000000226  C 25.9999996437143 7.37258375085636  20.6274167611436 2.00000024828569  14.000000226 1.99999994828574  C 7.37258327085639 1.99999966828575  2.00000024828569 7.37258271085641  1.99999994828574 13.999999166  C 1.99999966828575 20.6274161611436  7.37258223085644 25.9999990437143  13.999999166 25.9999994437143  Z M 17.5858572476234 8.41407010809248  L 11.9999997297143 13.9999271260016  L 17.5858567676234 19.5857855839107  L 16.1716416385341 20.999999553  L 9.17157249153561 13.9999270060016  L 16.1716422585341 6.99985689900311  L 17.5858572476234 8.41407010809248  Z " fill-rule="nonzero" fill="#000000" stroke="none" fill-opacity="0.898039215686275" transform="matrix(1 0 0 1 82 1390 )" />
  </g>
</svg>