<?xml version="1.0" encoding="utf-8"?>
<svg version="1.1" xmlns:xlink="http://www.w3.org/1999/xlink" width="28px" height="28px" xmlns="http://www.w3.org/2000/svg">
  <g transform="matrix(1 0 0 1 -1810 -1391 )">
    <path d="M 14.000000306 27.9999994  C 6.26801347499914 27.9999998  0 21.7319871370009  0 14.000000306  C 0 6.26801395499911  6.26801225499922 0  13.9999990860001 0  C 21.7319853370009 0  27.999999 6.26801273499913  27.9999994 13.999999086  C 27.9999998 21.7319859370009  21.7319867370009 27.999999  14.000000306 27.9999994  Z M 13.999999166 1.99999994828574  C 7.37258271085636 2.00000024828569  1.9999996682857 7.37258327085639  1.99999994828569 14.000000226  C 2.00000024828569 20.6274167611436  7.37258375085636 25.9999996437143  14.000000226 25.9999994437143  C 20.6274171611436 25.9999990437143  25.9999996437143 20.6274155611436  25.9999994437143 13.999999166  C 25.9999990437143 7.37258223085644  20.6274161611437 1.99999966828575  13.999999166 1.99999994828574  Z M 10.4141426243766 19.5859295839075  L 15.9999996422857 14.0000720859984  L 10.4141421443766 8.41421410808931  L 11.8283571334659 6.99999993899999  L 18.8284270004644 14.0000719659984  L 11.8283577534659 21.0001427529969  L 10.4141426243766 19.5859295839075  Z " fill-rule="nonzero" fill="#000000" stroke="none" fill-opacity="0.898039215686275" transform="matrix(1 0 0 1 1810 1391 )" />
  </g>
</svg>